<?xml version="1.0" standalone="no"?>
<!DOCTYPE svg PUBLIC "-//W3C//DTD SVG 20010904//EN"
 "http://www.w3.org/TR/2001/REC-SVG-20010904/DTD/svg10.dtd">
<svg version="1.0" xmlns="http://www.w3.org/2000/svg"
 width="700.000000pt" height="700.000000pt" viewBox="0 0 700.000000 700.000000"
 preserveAspectRatio="xMidYMid meet">
<metadata>
Created by potrace 1.11, written by Peter Selinger 2001-2013
</metadata>
<g transform="translate(0.000000,700.000000) scale(0.100000,-0.100000)"
fill="#000000" stroke="none">
<path d="M4828 6983 c-9 -10 -48 -83 -87 -162 -39 -79 -80 -156 -91 -171 -11
-15 -20 -31 -20 -35 0 -17 -185 -270 -235 -321 -11 -12 -32 -34 -46 -50 -14
-16 -71 -72 -127 -125 -153 -145 -269 -197 -455 -205 -154 -6 -280 28 -484
130 -102 51 -196 87 -263 100 -14 3 -46 9 -72 14 -26 5 -89 10 -140 11 -447 8
-846 -296 -1127 -859 -37 -74 -75 -155 -85 -180 l-17 -44 -21 34 c-12 19 -31
50 -44 69 -22 33 -22 33 -3 65 53 87 -12 196 -119 196 -56 0 -318 -161 -348
-214 -35 -62 -22 -121 38 -171 28 -23 39 -27 80 -23 l48 5 109 -176 c1011
-1636 975 -1579 1182 -1911 46 -74 89 -142 94 -152 6 -9 26 -43 46 -75 20 -32
61 -98 91 -148 31 -49 124 -200 208 -335 84 -135 158 -254 164 -265 6 -11 56
-92 110 -180 55 -88 185 -297 289 -465 184 -295 275 -443 308 -498 9 -15 80
-130 159 -257 78 -126 150 -242 159 -257 50 -85 182 -296 193 -310 12 -16 25
-10 148 68 74 46 137 89 138 95 2 5 -2 17 -9 25 -7 9 -18 25 -24 35 -12 22
-153 250 -200 324 -18 28 -87 140 -155 250 -68 110 -159 259 -203 330 -44 72
-94 153 -112 180 -17 28 -134 217 -259 420 -126 204 -236 381 -245 395 -19 28
-421 678 -493 797 -28 46 -45 85 -42 95 3 10 7 30 10 45 11 63 57 210 92 291
110 254 241 432 416 564 72 54 232 141 282 153 11 3 57 14 104 26 64 16 119
21 225 23 179 1 217 -4 450 -61 87 -21 370 -26 465 -8 336 65 586 238 797 550
46 69 126 224 141 275 6 19 19 58 30 86 17 46 35 111 46 169 2 11 14 42 25 68
12 27 21 53 21 58 0 7 -329 540 -435 704 -34 52 -199 317 -225 360 -8 14 -84
136 -169 272 -85 137 -168 271 -185 298 -36 59 -44 68 -73 83 -29 16 -37 15
-55 -5z m112 -279 c27 -45 50 -85 50 -90 -1 -8 -120 -105 -156 -127 -8 -5 -24
12 -48 50 l-35 57 18 30 c10 17 34 71 52 119 l33 88 18 -23 c10 -13 40 -60 68
-104z m20 -451 c73 -120 138 -224 145 -231 9 -10 27 4 89 69 42 45 78 80 80
78 17 -23 286 -461 286 -466 -1 -15 -171 -136 -179 -127 -4 5 -34 52 -66 104
-31 52 -66 107 -76 122 -11 15 -19 30 -19 33 0 3 -8 18 -19 33 -10 15 -33 51
-51 80 -19 28 -36 52 -40 52 -6 0 -103 -70 -343 -249 -37 -28 -70 -51 -71 -51
-4 0 -68 101 -198 313 l-78 129 81 94 c45 52 98 104 118 115 39 21 45 25 130
81 31 20 61 37 67 37 6 1 71 -97 144 -216z m-1741 -311 c22 -16 191 -273 191
-291 0 -4 -81 -63 -181 -131 -100 -69 -186 -129 -193 -135 -29 -25 -165 -115
-174 -115 -9 0 -272 414 -272 429 0 3 109 74 243 157 l242 151 60 -24 c33 -13
71 -31 84 -41z m-719 -104 c41 -67 76 -125 78 -129 3 -7 -33 -31 -124 -86 -10
-6 -85 -52 -165 -102 -81 -50 -149 -91 -153 -91 -3 0 -6 4 -6 9 0 5 -24 49
-54 97 -39 62 -52 93 -46 104 17 31 183 191 243 234 71 50 127 84 142 85 6 1
44 -54 85 -121z m1564 -250 c75 -122 135 -226 132 -232 -4 -11 -474 -202 -479
-195 -42 57 -295 484 -290 489 4 4 74 37 156 73 126 57 158 67 225 73 42 3 79
8 81 10 21 21 49 -14 175 -218z m761 -104 c70 -113 128 -213 129 -221 1 -10
-90 -80 -232 -181 -198 -140 -236 -163 -247 -151 -17 18 -267 421 -263 424 13
13 474 335 479 335 3 0 63 -93 134 -206z m645 -54 c28 -47 74 -121 102 -165
l50 -79 -25 -21 c-40 -34 -338 -259 -363 -275 -13 -8 -24 -17 -24 -21 0 -3 54
-93 119 -200 l120 -193 -46 -40 c-121 -107 -266 -188 -401 -225 l-72 -20 -14
22 c-7 12 -34 55 -60 95 -25 40 -46 74 -46 76 0 3 -16 28 -35 57 -19 30 -35
57 -35 61 0 4 82 71 183 148 100 78 189 146 197 153 8 7 30 23 48 36 23 16 31
28 27 41 -3 10 -55 98 -116 195 -61 98 -107 181 -102 185 4 5 98 74 208 155
l199 146 17 -22 c9 -13 40 -62 69 -109z m-3190 -225 c73 -118 134 -215 136
-215 4 0 50 27 130 77 10 7 72 45 137 85 65 40 131 81 146 91 l29 18 63 -103
c35 -57 68 -111 74 -120 52 -90 171 -278 176 -278 4 0 127 88 273 195 147 107
270 195 274 195 4 0 38 -51 76 -113 38 -61 97 -158 132 -214 35 -57 64 -106
64 -110 0 -5 -122 -95 -270 -202 -149 -106 -270 -197 -270 -202 0 -5 20 -40
44 -78 l44 -69 -41 -18 c-80 -36 -215 -132 -291 -208 -43 -42 -81 -76 -86 -76
-5 0 -32 38 -61 85 -50 82 -71 99 -94 76 -6 -6 -104 -69 -220 -141 -180 -112
-211 -128 -220 -115 -5 9 -26 42 -46 73 -20 31 -62 100 -94 152 -33 52 -64
102 -70 110 -7 8 -22 32 -34 52 l-22 37 58 37 c32 20 138 86 235 146 l177 109
-51 82 c-28 45 -80 129 -116 187 -131 212 -144 231 -160 225 -8 -3 -113 -66
-233 -140 -120 -74 -221 -135 -226 -135 -4 0 -31 36 -58 81 -28 44 -58 92 -67
107 -10 15 -24 38 -32 52 -8 14 -30 50 -50 79 -33 51 -34 56 -22 86 33 78 42
86 227 200 101 62 189 114 196 114 6 1 70 -96 143 -214z m3515 68 c-3 -32 -8
-74 -10 -93 -7 -56 -18 -173 -19 -192 0 -10 -3 -18 -6 -18 -7 0 -130 197 -130
209 0 10 151 151 162 151 4 0 6 -26 3 -57z m-1220 -509 c50 -81 102 -167 116
-192 l27 -47 -242 -87 c-132 -49 -246 -86 -252 -84 -8 3 -183 279 -221 348 -4
7 24 21 137 68 30 12 64 27 75 31 112 50 252 108 260 108 6 0 51 -65 100 -145z
m-289 -531 c-2 -2 -28 2 -59 8 l-56 12 32 37 31 38 27 -46 c15 -26 26 -48 25
-49z m-1452 -878 l-17 -48 -18 24 c-10 13 -19 27 -19 31 0 6 63 47 67 43 2 -1
-4 -23 -13 -50z"/>
<path d="M2959 4624 c-112 -69 -209 -131 -216 -137 -9 -9 20 -63 122 -227 73
-118 137 -214 143 -213 13 3 404 242 420 258 12 11 -38 99 -210 373 -10 15
-23 37 -29 50 -7 12 -15 22 -19 22 -3 0 -98 -57 -211 -126z"/>
</g>
</svg>
